<svg xmlns="http://www.w3.org/2000/svg" version="1.1" viewBox="-5.0 -10.0 110.0 135.0">
 <path fill="#ffffff" d="m57.383 29.941c-0.39453 0.39453-1.0312 0.39453-1.4258 0-0.39453-0.39453-0.39453-1.0312 0-1.4258 7.5-7.5 19.703-7.5 27.203 0 0.39453 0.39453 0.39453 1.0312 0 1.4258-0.19531 0.19531-0.45312 0.29297-0.71094 0.29297-0.25781 0-0.51562-0.097656-0.71094-0.29297-6.7188-6.7148-17.645-6.7148-24.355 0zm19.699 4.6523c0.19531 0.19531 0.45312 0.29297 0.71094 0.29297 0.25781 0 0.51562-0.097657 0.71094-0.29297 0.39453-0.39453 0.39453-1.0312 0-1.4258-2.3906-2.3906-5.5664-3.707-8.9453-3.707s-6.5547 1.3164-8.9453 3.707c-0.39453 0.39453-0.39453 1.0312 0 1.4258s1.0312 0.39453 1.4258 0c2.0078-2.0078 4.6797-3.1172 7.5234-3.1172 2.8359 0.003907 5.5078 1.1094 7.5195 3.1172zm-7.5234 9.2383c-2.2266 0-4.0391-1.8125-4.0391-4.0391 0-2.2266 1.8125-4.0391 4.0391-4.0391 2.2266 0 4.0391 1.8125 4.0391 4.0391-0.003906 2.2266-1.8125 4.0391-4.0391 4.0391zm2.0234-4.0391c0-1.1172-0.90625-2.0234-2.0234-2.0234-1.1172 0-2.0234 0.90625-2.0234 2.0234 0 1.1172 0.90625 2.0234 2.0234 2.0234 1.1172 0 2.0234-0.90625 2.0234-2.0234zm24.734-25.887v54.812c0 4.3711-3.5547 7.9258-7.9258 7.9258l-37.664-0.003906c-1.5586 0-3.0898-0.46875-4.3867-1.3359l-1.0859 0.67969c0.89453 1.875 0.86719 4.457-0.76953 6.4453-4.0703 4.9375-10.141 4.957-15.016 4.9766-1.3047 0.003906-2.543 0.007812-3.6406 0.10156l-9.1289 6.332c-0.16797 0.11719-0.37109 0.17969-0.57422 0.17969-0.0625 0-0.125-0.003906-0.1875-0.019531-0.26562-0.050781-0.5-0.20703-0.64844-0.42969l-11.434-17.113c-0.15234-0.22656-0.20312-0.50391-0.14844-0.76953 0.058594-0.26562 0.21875-0.5 0.45312-0.64062l7.7812-4.8516c1.6367-7.1133 5.2852-9.4453 10.73-12.617l-0.035156-0.058594c-0.93359-1.4922-0.48047-3.4648 1.0078-4.3984l19.16-12.012-0.003907-27.203c0-4.3711 3.5547-7.9258 7.9258-7.9258h37.664c4.3672 0 7.9258 3.5547 7.9258 7.9258zm-71.977 42.539 12.258 19.547c0.50781-0.3125 1-0.66797 1.4883-1.0156 0.45703-0.32812 0.89062-0.64062 1.3203-0.89844 1.6133-0.97656 3.3438-0.85156 4.6445 0.28906l24.113-15.121c0.26563-0.16406 0.44922-0.42578 0.51953-0.73438 0.070312-0.30859 0.019531-0.62109-0.14844-0.88672l-13-20.738c-0.16406-0.26562-0.42578-0.44922-0.73438-0.51953-0.30859-0.070313-0.625-0.019532-0.88672 0.14844l-29.203 18.309c-0.54688 0.34375-0.71484 1.0742-0.37109 1.6211zm46.305 2.5156c-0.19141 0.83203-0.69141 1.5391-1.4141 1.9922l-7.6836 4.8203h22.008c2.2812 0 4.1367-1.8555 4.1367-4.1367v-40.652c0-2.2812-1.8555-4.1367-4.1367-4.1367l-27.992 0.003906c-2.2812 0-4.1367 1.8555-4.1367 4.1367v14.711l1.418-0.88672c0.71875-0.45312 1.5742-0.59375 2.4062-0.40234s1.5391 0.69141 1.9922 1.4141l13 20.73c0.45312 0.71875 0.59375 1.5742 0.40234 2.4062zm-39.262 17.621c1.2578 0.57031 2.3594 0.57422 3.375 0.27344l-3.25-5.1836c-0.64062 1.3164-0.86328 3.1094-0.125 4.9102zm11.594-0.44922c-0.48047-0.55859-1.3125-1.0664-2.5312-0.33203-0.35937 0.21875-0.76172 0.50391-1.1875 0.8125-2.0352 1.4609-5.1133 3.6719-9.1094 1.6055-0.19531-0.10156-0.35156-0.26172-0.44922-0.46094-1.4414-3.0352-0.77734-6.0703 0.60938-7.9961l-6.5703-10.48c-5.293 3.082-8.5117 5.1367-9.9258 11.75-0.058594 0.26562-0.21875 0.5-0.45312 0.64453l-7.2578 4.5234 10.289 15.402 8.5039-5.8984c0.14062-0.097656 0.30078-0.15625 0.47266-0.17578 1.2578-0.12891 2.6328-0.13281 4.0938-0.13672 4.6875-0.015625 9.9961-0.03125 13.469-4.2422 1.3242-1.6016 1.0547-3.8516 0.046874-5.0156zm51.324-62.227c0-3.2578-2.6523-5.9102-5.9102-5.9102l-37.664-0.003906c-3.2578 0-5.9102 2.6523-5.9102 5.9102v25.938l4.5977-2.8828v-15.973c0-3.3906 2.7578-6.1484 6.1484-6.1484h27.992c3.3906 0 6.1484 2.7578 6.1484 6.1484v40.648c0 3.3906-2.7578 6.1484-6.1484 6.1484h-25.219l-10.059 6.3047c0.76562 0.35156 1.6016 0.53906 2.4453 0.53906h37.664c3.2578 0 5.9102-2.6523 5.9102-5.9102z"/>
</svg>